<mxfile host="app.diagrams.net" agent="Mozilla/5.0 (Windows NT 10.0; Win64; x64) AppleWebKit/537.36 (KHTML, like Gecko) Chrome/138.0.0.0 Safari/537.36" version="26.0.11">
  <diagram name="PÃ¡gina-1" id="BKx8lKvN_idia5Qk8Hgd">
    <mxGraphModel dx="1313" dy="696" grid="1" gridSize="10" guides="1" tooltips="1" connect="1" arrows="1" fold="1" page="1" pageScale="1" pageWidth="827" pageHeight="1169" math="0" shadow="0">
      <root>
        <mxCell id="0" />
        <mxCell id="1" parent="0" />
        <mxCell id="902zgvkrH8BHrmamsMoW-72" style="edgeStyle=orthogonalEdgeStyle;rounded=0;orthogonalLoop=1;jettySize=auto;html=1;entryX=0;entryY=0.517;entryDx=0;entryDy=0;entryPerimeter=0;" edge="1" parent="1" source="902zgvkrH8BHrmamsMoW-1" target="902zgvkrH8BHrmamsMoW-65">
          <mxGeometry relative="1" as="geometry">
            <mxPoint x="490" y="216.0000000000001" as="targetPoint" />
          </mxGeometry>
        </mxCell>
        <mxCell id="902zgvkrH8BHrmamsMoW-142" style="edgeStyle=orthogonalEdgeStyle;rounded=0;orthogonalLoop=1;jettySize=auto;html=1;" edge="1" parent="1" source="902zgvkrH8BHrmamsMoW-1" target="902zgvkrH8BHrmamsMoW-6">
          <mxGeometry relative="1" as="geometry" />
        </mxCell>
        <mxCell id="902zgvkrH8BHrmamsMoW-1" value="" style="image;aspect=fixed;html=1;points=[];align=center;fontSize=12;image=img/lib/dynamics365/ProductVisualize.svg;" vertex="1" parent="1">
          <mxGeometry x="296" y="182" width="68" height="68" as="geometry" />
        </mxCell>
        <mxCell id="902zgvkrH8BHrmamsMoW-71" style="edgeStyle=orthogonalEdgeStyle;rounded=0;orthogonalLoop=1;jettySize=auto;html=1;" edge="1" parent="1" source="902zgvkrH8BHrmamsMoW-6" target="902zgvkrH8BHrmamsMoW-1">
          <mxGeometry relative="1" as="geometry" />
        </mxCell>
        <mxCell id="902zgvkrH8BHrmamsMoW-6" value="" style="verticalLabelPosition=bottom;html=1;verticalAlign=top;strokeWidth=1;align=center;outlineConnect=0;dashed=0;outlineConnect=0;shape=mxgraph.aws3d.elasticLoadBalancing;fillColor=#ECECEC;strokeColor=#5E5E5E;aspect=fixed;" vertex="1" parent="1">
          <mxGeometry x="98.7" y="186" width="62.6" height="60" as="geometry" />
        </mxCell>
        <mxCell id="902zgvkrH8BHrmamsMoW-7" value="EMQX" style="shape=umlLifeline;perimeter=lifelinePerimeter;whiteSpace=wrap;html=1;container=1;dropTarget=0;collapsible=0;recursiveResize=0;outlineConnect=0;portConstraint=eastwest;newEdgeStyle={&quot;curved&quot;:0,&quot;rounded&quot;:0};" vertex="1" parent="1">
          <mxGeometry x="280" y="320" width="100" height="680" as="geometry" />
        </mxCell>
        <mxCell id="902zgvkrH8BHrmamsMoW-15" value="" style="html=1;points=[[0,0,0,0,5],[0,1,0,0,-5],[1,0,0,0,5],[1,1,0,0,-5]];perimeter=orthogonalPerimeter;outlineConnect=0;targetShapes=umlLifeline;portConstraint=eastwest;newEdgeStyle={&quot;curved&quot;:0,&quot;rounded&quot;:0};" vertex="1" parent="902zgvkrH8BHrmamsMoW-7">
          <mxGeometry x="45" y="80" width="10" height="80" as="geometry" />
        </mxCell>
        <mxCell id="902zgvkrH8BHrmamsMoW-23" value="" style="html=1;points=[[0,0,0,0,5],[0,1,0,0,-5],[1,0,0,0,5],[1,1,0,0,-5]];perimeter=orthogonalPerimeter;outlineConnect=0;targetShapes=umlLifeline;portConstraint=eastwest;newEdgeStyle={&quot;curved&quot;:0,&quot;rounded&quot;:0};" vertex="1" parent="902zgvkrH8BHrmamsMoW-7">
          <mxGeometry x="45" y="200" width="10" height="80" as="geometry" />
        </mxCell>
        <mxCell id="902zgvkrH8BHrmamsMoW-32" value="" style="html=1;points=[[0,0,0,0,5],[0,1,0,0,-5],[1,0,0,0,5],[1,1,0,0,-5]];perimeter=orthogonalPerimeter;outlineConnect=0;targetShapes=umlLifeline;portConstraint=eastwest;newEdgeStyle={&quot;curved&quot;:0,&quot;rounded&quot;:0};" vertex="1" parent="902zgvkrH8BHrmamsMoW-7">
          <mxGeometry x="45" y="320" width="10" height="80" as="geometry" />
        </mxCell>
        <mxCell id="902zgvkrH8BHrmamsMoW-8" value="Dispositivo" style="shape=umlLifeline;perimeter=lifelinePerimeter;whiteSpace=wrap;html=1;container=1;dropTarget=0;collapsible=0;recursiveResize=0;outlineConnect=0;portConstraint=eastwest;newEdgeStyle={&quot;curved&quot;:0,&quot;rounded&quot;:0};" vertex="1" parent="1">
          <mxGeometry x="80" y="320" width="100" height="680" as="geometry" />
        </mxCell>
        <mxCell id="902zgvkrH8BHrmamsMoW-11" value="" style="html=1;points=[[0,0,0,0,5],[0,1,0,0,-5],[1,0,0,0,5],[1,1,0,0,-5]];perimeter=orthogonalPerimeter;outlineConnect=0;targetShapes=umlLifeline;portConstraint=eastwest;newEdgeStyle={&quot;curved&quot;:0,&quot;rounded&quot;:0};" vertex="1" parent="902zgvkrH8BHrmamsMoW-8">
          <mxGeometry x="45" y="80" width="10" height="80" as="geometry" />
        </mxCell>
        <mxCell id="902zgvkrH8BHrmamsMoW-25" value="" style="html=1;points=[[0,0,0,0,5],[0,1,0,0,-5],[1,0,0,0,5],[1,1,0,0,-5]];perimeter=orthogonalPerimeter;outlineConnect=0;targetShapes=umlLifeline;portConstraint=eastwest;newEdgeStyle={&quot;curved&quot;:0,&quot;rounded&quot;:0};" vertex="1" parent="902zgvkrH8BHrmamsMoW-8">
          <mxGeometry x="46.71000000000001" y="200" width="10" height="80" as="geometry" />
        </mxCell>
        <mxCell id="902zgvkrH8BHrmamsMoW-29" value="" style="html=1;points=[[0,0,0,0,5],[0,1,0,0,-5],[1,0,0,0,5],[1,1,0,0,-5]];perimeter=orthogonalPerimeter;outlineConnect=0;targetShapes=umlLifeline;portConstraint=eastwest;newEdgeStyle={&quot;curved&quot;:0,&quot;rounded&quot;:0};" vertex="1" parent="902zgvkrH8BHrmamsMoW-8">
          <mxGeometry x="46.71000000000001" y="320" width="10" height="80" as="geometry" />
        </mxCell>
        <mxCell id="902zgvkrH8BHrmamsMoW-30" value="" style="html=1;verticalAlign=bottom;endArrow=block;curved=0;rounded=0;entryX=1;entryY=0;entryDx=0;entryDy=5;exitX=1;exitY=0;exitDx=0;exitDy=5;" edge="1" parent="902zgvkrH8BHrmamsMoW-8" source="902zgvkrH8BHrmamsMoW-29">
          <mxGeometry relative="1" as="geometry">
            <mxPoint x="240" y="325" as="targetPoint" />
          </mxGeometry>
        </mxCell>
        <mxCell id="902zgvkrH8BHrmamsMoW-9" value="BackEnd" style="shape=umlLifeline;perimeter=lifelinePerimeter;whiteSpace=wrap;html=1;container=1;dropTarget=0;collapsible=0;recursiveResize=0;outlineConnect=0;portConstraint=eastwest;newEdgeStyle={&quot;curved&quot;:0,&quot;rounded&quot;:0};" vertex="1" parent="1">
          <mxGeometry x="480" y="320" width="100" height="680" as="geometry" />
        </mxCell>
        <mxCell id="902zgvkrH8BHrmamsMoW-18" value="" style="html=1;points=[[0,0,0,0,5],[0,1,0,0,-5],[1,0,0,0,5],[1,1,0,0,-5]];perimeter=orthogonalPerimeter;outlineConnect=0;targetShapes=umlLifeline;portConstraint=eastwest;newEdgeStyle={&quot;curved&quot;:0,&quot;rounded&quot;:0};" vertex="1" parent="902zgvkrH8BHrmamsMoW-9">
          <mxGeometry x="45" y="80" width="10" height="80" as="geometry" />
        </mxCell>
        <mxCell id="902zgvkrH8BHrmamsMoW-19" value="" style="html=1;points=[[0,0,0,0,5],[0,1,0,0,-5],[1,0,0,0,5],[1,1,0,0,-5]];perimeter=orthogonalPerimeter;outlineConnect=0;targetShapes=umlLifeline;portConstraint=eastwest;newEdgeStyle={&quot;curved&quot;:0,&quot;rounded&quot;:0};" vertex="1" parent="902zgvkrH8BHrmamsMoW-9">
          <mxGeometry x="45" y="200" width="10" height="80" as="geometry" />
        </mxCell>
        <mxCell id="902zgvkrH8BHrmamsMoW-35" value="" style="html=1;points=[[0,0,0,0,5],[0,1,0,0,-5],[1,0,0,0,5],[1,1,0,0,-5]];perimeter=orthogonalPerimeter;outlineConnect=0;targetShapes=umlLifeline;portConstraint=eastwest;newEdgeStyle={&quot;curved&quot;:0,&quot;rounded&quot;:0};" vertex="1" parent="902zgvkrH8BHrmamsMoW-9">
          <mxGeometry x="45" y="320" width="10" height="80" as="geometry" />
        </mxCell>
        <mxCell id="902zgvkrH8BHrmamsMoW-49" value="" style="html=1;points=[[0,0,0,0,5],[0,1,0,0,-5],[1,0,0,0,5],[1,1,0,0,-5]];perimeter=orthogonalPerimeter;outlineConnect=0;targetShapes=umlLifeline;portConstraint=eastwest;newEdgeStyle={&quot;curved&quot;:0,&quot;rounded&quot;:0};" vertex="1" parent="902zgvkrH8BHrmamsMoW-9">
          <mxGeometry x="45" y="440" width="10" height="80" as="geometry" />
        </mxCell>
        <mxCell id="902zgvkrH8BHrmamsMoW-10" value="FrontEnd" style="shape=umlLifeline;perimeter=lifelinePerimeter;whiteSpace=wrap;html=1;container=1;dropTarget=0;collapsible=0;recursiveResize=0;outlineConnect=0;portConstraint=eastwest;newEdgeStyle={&quot;curved&quot;:0,&quot;rounded&quot;:0};" vertex="1" parent="1">
          <mxGeometry x="680" y="320" width="100" height="680" as="geometry" />
        </mxCell>
        <mxCell id="902zgvkrH8BHrmamsMoW-22" value="" style="html=1;points=[[0,0,0,0,5],[0,1,0,0,-5],[1,0,0,0,5],[1,1,0,0,-5]];perimeter=orthogonalPerimeter;outlineConnect=0;targetShapes=umlLifeline;portConstraint=eastwest;newEdgeStyle={&quot;curved&quot;:0,&quot;rounded&quot;:0};" vertex="1" parent="902zgvkrH8BHrmamsMoW-10">
          <mxGeometry x="45" y="200" width="10" height="80" as="geometry" />
        </mxCell>
        <mxCell id="902zgvkrH8BHrmamsMoW-38" value="" style="html=1;points=[[0,0,0,0,5],[0,1,0,0,-5],[1,0,0,0,5],[1,1,0,0,-5]];perimeter=orthogonalPerimeter;outlineConnect=0;targetShapes=umlLifeline;portConstraint=eastwest;newEdgeStyle={&quot;curved&quot;:0,&quot;rounded&quot;:0};" vertex="1" parent="902zgvkrH8BHrmamsMoW-10">
          <mxGeometry x="45" y="320" width="10" height="80" as="geometry" />
        </mxCell>
        <mxCell id="902zgvkrH8BHrmamsMoW-39" value="" style="html=1;verticalAlign=bottom;endArrow=block;curved=0;rounded=0;entryX=0;entryY=0;entryDx=0;entryDy=5;" edge="1" parent="902zgvkrH8BHrmamsMoW-10" target="902zgvkrH8BHrmamsMoW-38">
          <mxGeometry relative="1" as="geometry">
            <mxPoint x="-140" y="325" as="sourcePoint" />
          </mxGeometry>
        </mxCell>
        <mxCell id="902zgvkrH8BHrmamsMoW-40" value="" style="html=1;verticalAlign=bottom;endArrow=open;dashed=1;endSize=8;curved=0;rounded=0;exitX=0;exitY=1;exitDx=0;exitDy=-5;" edge="1" parent="902zgvkrH8BHrmamsMoW-10" source="902zgvkrH8BHrmamsMoW-38">
          <mxGeometry relative="1" as="geometry">
            <mxPoint x="-140" y="395" as="targetPoint" />
          </mxGeometry>
        </mxCell>
        <mxCell id="902zgvkrH8BHrmamsMoW-46" value="" style="html=1;points=[[0,0,0,0,5],[0,1,0,0,-5],[1,0,0,0,5],[1,1,0,0,-5]];perimeter=orthogonalPerimeter;outlineConnect=0;targetShapes=umlLifeline;portConstraint=eastwest;newEdgeStyle={&quot;curved&quot;:0,&quot;rounded&quot;:0};" vertex="1" parent="902zgvkrH8BHrmamsMoW-10">
          <mxGeometry x="45" y="440" width="10" height="80" as="geometry" />
        </mxCell>
        <mxCell id="902zgvkrH8BHrmamsMoW-47" value="" style="html=1;verticalAlign=bottom;endArrow=block;curved=0;rounded=0;entryX=0;entryY=0;entryDx=0;entryDy=5;exitX=0;exitY=0;exitDx=0;exitDy=5;" edge="1" parent="902zgvkrH8BHrmamsMoW-10" source="902zgvkrH8BHrmamsMoW-46">
          <mxGeometry relative="1" as="geometry">
            <mxPoint x="-140" y="445" as="targetPoint" />
          </mxGeometry>
        </mxCell>
        <mxCell id="902zgvkrH8BHrmamsMoW-48" value="" style="html=1;verticalAlign=bottom;endArrow=open;dashed=1;endSize=8;curved=0;rounded=0;exitX=0;exitY=1;exitDx=0;exitDy=-5;entryX=0;entryY=1;entryDx=0;entryDy=-5;" edge="1" parent="902zgvkrH8BHrmamsMoW-10" target="902zgvkrH8BHrmamsMoW-46">
          <mxGeometry relative="1" as="geometry">
            <mxPoint x="-140" y="515" as="sourcePoint" />
          </mxGeometry>
        </mxCell>
        <mxCell id="902zgvkrH8BHrmamsMoW-12" value="" style="html=1;verticalAlign=bottom;endArrow=block;curved=0;rounded=0;exitX=1;exitY=0;exitDx=0;exitDy=5;" edge="1" parent="1" source="902zgvkrH8BHrmamsMoW-11">
          <mxGeometry relative="1" as="geometry">
            <mxPoint x="325" y="405" as="targetPoint" />
          </mxGeometry>
        </mxCell>
        <mxCell id="902zgvkrH8BHrmamsMoW-16" value="" style="html=1;verticalAlign=bottom;endArrow=block;curved=0;rounded=0;entryX=0;entryY=0;entryDx=0;entryDy=5;exitX=1;exitY=0;exitDx=0;exitDy=5;entryPerimeter=0;" edge="1" target="902zgvkrH8BHrmamsMoW-18" parent="1" source="902zgvkrH8BHrmamsMoW-15">
          <mxGeometry relative="1" as="geometry">
            <mxPoint x="430" y="405" as="targetPoint" />
          </mxGeometry>
        </mxCell>
        <mxCell id="902zgvkrH8BHrmamsMoW-20" value="" style="html=1;verticalAlign=bottom;endArrow=block;curved=0;rounded=0;entryX=1;entryY=0;entryDx=0;entryDy=5;exitX=0;exitY=0;exitDx=0;exitDy=5;exitPerimeter=0;" edge="1" target="902zgvkrH8BHrmamsMoW-19" parent="1" source="902zgvkrH8BHrmamsMoW-22">
          <mxGeometry relative="1" as="geometry">
            <mxPoint x="730" y="525" as="sourcePoint" />
          </mxGeometry>
        </mxCell>
        <mxCell id="902zgvkrH8BHrmamsMoW-21" value="" style="html=1;verticalAlign=bottom;endArrow=open;dashed=1;endSize=8;curved=0;rounded=0;exitX=1;exitY=1;exitDx=0;exitDy=-5;" edge="1" source="902zgvkrH8BHrmamsMoW-19" parent="1">
          <mxGeometry relative="1" as="geometry">
            <mxPoint x="720" y="595" as="targetPoint" />
          </mxGeometry>
        </mxCell>
        <mxCell id="902zgvkrH8BHrmamsMoW-24" value="" style="html=1;verticalAlign=bottom;endArrow=block;curved=0;rounded=0;entryX=1;entryY=0;entryDx=0;entryDy=5;exitX=0;exitY=0;exitDx=0;exitDy=5;exitPerimeter=0;" edge="1" parent="1">
          <mxGeometry relative="1" as="geometry">
            <mxPoint x="524" y="525" as="sourcePoint" />
            <mxPoint x="334" y="525" as="targetPoint" />
          </mxGeometry>
        </mxCell>
        <mxCell id="902zgvkrH8BHrmamsMoW-27" value="" style="html=1;verticalAlign=bottom;endArrow=block;curved=0;rounded=0;exitX=0;exitY=0;exitDx=0;exitDy=5;exitPerimeter=0;" edge="1" parent="1">
          <mxGeometry relative="1" as="geometry">
            <mxPoint x="324.71" y="526" as="sourcePoint" />
            <mxPoint x="140" y="526" as="targetPoint" />
          </mxGeometry>
        </mxCell>
        <mxCell id="902zgvkrH8BHrmamsMoW-36" value="" style="html=1;verticalAlign=bottom;endArrow=block;curved=0;rounded=0;entryX=0;entryY=0;entryDx=0;entryDy=5;" edge="1" target="902zgvkrH8BHrmamsMoW-35" parent="1">
          <mxGeometry relative="1" as="geometry">
            <mxPoint x="340" y="645" as="sourcePoint" />
          </mxGeometry>
        </mxCell>
        <mxCell id="902zgvkrH8BHrmamsMoW-41" value="Nuevo dispositivo" style="text;html=1;align=left;verticalAlign=middle;resizable=0;points=[];autosize=1;strokeColor=none;fillColor=none;" vertex="1" parent="1">
          <mxGeometry y="420" width="120" height="30" as="geometry" />
        </mxCell>
        <mxCell id="902zgvkrH8BHrmamsMoW-42" value="Asignacion&amp;nbsp;&lt;span style=&quot;background-color: transparent; color: light-dark(rgb(0, 0, 0), rgb(255, 255, 255));&quot;&gt;user/ disp.&lt;/span&gt;&lt;div&gt;Cambio de user/disp.&lt;br&gt;&lt;div&gt;&lt;span style=&quot;background-color: transparent; color: light-dark(rgb(0, 0, 0), rgb(255, 255, 255));&quot;&gt;Envio de comandos&lt;/span&gt;&lt;/div&gt;&lt;/div&gt;" style="text;html=1;align=left;verticalAlign=middle;resizable=0;points=[];autosize=1;strokeColor=none;fillColor=none;" vertex="1" parent="1">
          <mxGeometry y="530" width="140" height="60" as="geometry" />
        </mxCell>
        <mxCell id="902zgvkrH8BHrmamsMoW-43" value="Envio de mediciones&lt;div&gt;Reinicio de disp. asig.&lt;/div&gt;" style="text;html=1;align=left;verticalAlign=middle;resizable=0;points=[];autosize=1;strokeColor=none;fillColor=none;" vertex="1" parent="1">
          <mxGeometry y="665" width="140" height="40" as="geometry" />
        </mxCell>
        <mxCell id="902zgvkrH8BHrmamsMoW-64" value="ABM productos&lt;div&gt;ABM usuarios&lt;/div&gt;&lt;div&gt;ABM dispositivos&lt;/div&gt;&lt;div&gt;ABM alacena&lt;/div&gt;" style="text;html=1;align=left;verticalAlign=middle;resizable=0;points=[];autosize=1;strokeColor=none;fillColor=none;" vertex="1" parent="1">
          <mxGeometry x="8.881784197001252e-16" y="760" width="110" height="70" as="geometry" />
        </mxCell>
        <mxCell id="902zgvkrH8BHrmamsMoW-65" value="" style="image;aspect=fixed;perimeter=ellipsePerimeter;html=1;align=center;shadow=0;dashed=0;fontColor=#4277BB;labelBackgroundColor=default;fontSize=12;spacingTop=3;image=img/lib/ibm/infrastructure/mobile_backend.svg;" vertex="1" parent="1">
          <mxGeometry x="500" y="185" width="60" height="60" as="geometry" />
        </mxCell>
        <mxCell id="902zgvkrH8BHrmamsMoW-140" style="edgeStyle=orthogonalEdgeStyle;rounded=0;orthogonalLoop=1;jettySize=auto;html=1;entryX=1;entryY=0.5;entryDx=0;entryDy=0;" edge="1" parent="1" source="902zgvkrH8BHrmamsMoW-68" target="902zgvkrH8BHrmamsMoW-65">
          <mxGeometry relative="1" as="geometry" />
        </mxCell>
        <mxCell id="902zgvkrH8BHrmamsMoW-68" value="" style="verticalLabelPosition=bottom;aspect=fixed;html=1;shape=mxgraph.salesforce.web2;" vertex="1" parent="1">
          <mxGeometry x="700" y="186" width="60" height="60" as="geometry" />
        </mxCell>
        <mxCell id="902zgvkrH8BHrmamsMoW-73" style="edgeStyle=orthogonalEdgeStyle;rounded=0;orthogonalLoop=1;jettySize=auto;html=1;entryX=0.033;entryY=0.475;entryDx=0;entryDy=0;entryPerimeter=0;" edge="1" parent="1" source="902zgvkrH8BHrmamsMoW-65" target="902zgvkrH8BHrmamsMoW-68">
          <mxGeometry relative="1" as="geometry" />
        </mxCell>
        <mxCell id="902zgvkrH8BHrmamsMoW-74" value="Inicio" style="strokeWidth=2;html=1;shape=mxgraph.flowchart.start_2;whiteSpace=wrap;" vertex="1" parent="1">
          <mxGeometry x="398.47" y="1320" width="50" height="50" as="geometry" />
        </mxCell>
        <mxCell id="902zgvkrH8BHrmamsMoW-75" value="&lt;div&gt;Info dispositivo&lt;/div&gt;" style="shape=parallelogram;html=1;strokeWidth=2;perimeter=parallelogramPerimeter;whiteSpace=wrap;rounded=1;arcSize=12;size=0.23;align=center;" vertex="1" parent="1">
          <mxGeometry x="204" y="1515" width="158.93" height="50" as="geometry" />
        </mxCell>
        <mxCell id="902zgvkrH8BHrmamsMoW-79" style="edgeStyle=orthogonalEdgeStyle;rounded=0;orthogonalLoop=1;jettySize=auto;html=1;entryX=0.5;entryY=0;entryDx=0;entryDy=0;" edge="1" parent="1" source="902zgvkrH8BHrmamsMoW-77" target="902zgvkrH8BHrmamsMoW-78">
          <mxGeometry relative="1" as="geometry">
            <Array as="points">
              <mxPoint x="553.47" y="1460" />
            </Array>
          </mxGeometry>
        </mxCell>
        <mxCell id="902zgvkrH8BHrmamsMoW-100" style="edgeStyle=orthogonalEdgeStyle;rounded=0;orthogonalLoop=1;jettySize=auto;html=1;entryX=0.5;entryY=0;entryDx=0;entryDy=0;" edge="1" parent="1" source="902zgvkrH8BHrmamsMoW-77" target="902zgvkrH8BHrmamsMoW-75">
          <mxGeometry relative="1" as="geometry" />
        </mxCell>
        <mxCell id="902zgvkrH8BHrmamsMoW-77" value="Asignado" style="strokeWidth=2;html=1;shape=mxgraph.flowchart.decision;whiteSpace=wrap;" vertex="1" parent="1">
          <mxGeometry x="373.47" y="1410" width="100" height="100" as="geometry" />
        </mxCell>
        <mxCell id="902zgvkrH8BHrmamsMoW-78" value="&lt;div&gt;Info dispositivo&lt;/div&gt;Usuario asignado" style="shape=parallelogram;html=1;strokeWidth=2;perimeter=parallelogramPerimeter;whiteSpace=wrap;rounded=1;arcSize=12;size=0.23;" vertex="1" parent="1">
          <mxGeometry x="483.47" y="1510" width="140" height="60" as="geometry" />
        </mxCell>
        <mxCell id="902zgvkrH8BHrmamsMoW-103" style="edgeStyle=orthogonalEdgeStyle;rounded=0;orthogonalLoop=1;jettySize=auto;html=1;" edge="1" parent="1" source="902zgvkrH8BHrmamsMoW-80" target="902zgvkrH8BHrmamsMoW-102">
          <mxGeometry relative="1" as="geometry" />
        </mxCell>
        <mxCell id="902zgvkrH8BHrmamsMoW-80" value="Info dispositivo&lt;br&gt;Mediciones" style="strokeWidth=2;html=1;shape=mxgraph.flowchart.display;whiteSpace=wrap;" vertex="1" parent="1">
          <mxGeometry x="503.47" y="1600" width="100" height="60" as="geometry" />
        </mxCell>
        <mxCell id="902zgvkrH8BHrmamsMoW-81" style="edgeStyle=orthogonalEdgeStyle;rounded=0;orthogonalLoop=1;jettySize=auto;html=1;entryX=0.5;entryY=0;entryDx=0;entryDy=0;entryPerimeter=0;" edge="1" parent="1" source="902zgvkrH8BHrmamsMoW-78" target="902zgvkrH8BHrmamsMoW-80">
          <mxGeometry relative="1" as="geometry" />
        </mxCell>
        <mxCell id="902zgvkrH8BHrmamsMoW-82" value="Si" style="text;html=1;align=center;verticalAlign=middle;resizable=0;points=[];autosize=1;strokeColor=none;fillColor=none;" vertex="1" parent="1">
          <mxGeometry x="494" y="1428" width="30" height="30" as="geometry" />
        </mxCell>
        <mxCell id="902zgvkrH8BHrmamsMoW-85" value="Info dispositivo" style="strokeWidth=2;html=1;shape=mxgraph.flowchart.display;whiteSpace=wrap;" vertex="1" parent="1">
          <mxGeometry x="223.47" y="1600" width="100" height="60" as="geometry" />
        </mxCell>
        <mxCell id="902zgvkrH8BHrmamsMoW-98" value="No" style="text;html=1;align=center;verticalAlign=middle;resizable=0;points=[];autosize=1;strokeColor=none;fillColor=none;" vertex="1" parent="1">
          <mxGeometry x="314" y="1428" width="40" height="30" as="geometry" />
        </mxCell>
        <mxCell id="902zgvkrH8BHrmamsMoW-99" style="edgeStyle=orthogonalEdgeStyle;rounded=0;orthogonalLoop=1;jettySize=auto;html=1;exitX=0.5;exitY=1;exitDx=0;exitDy=0;entryX=0.59;entryY=0.025;entryDx=0;entryDy=0;entryPerimeter=0;" edge="1" parent="1" source="902zgvkrH8BHrmamsMoW-75" target="902zgvkrH8BHrmamsMoW-85">
          <mxGeometry relative="1" as="geometry" />
        </mxCell>
        <mxCell id="902zgvkrH8BHrmamsMoW-101" style="edgeStyle=orthogonalEdgeStyle;rounded=0;orthogonalLoop=1;jettySize=auto;html=1;exitX=0.5;exitY=1;exitDx=0;exitDy=0;exitPerimeter=0;entryX=0.5;entryY=0;entryDx=0;entryDy=0;entryPerimeter=0;" edge="1" parent="1" source="902zgvkrH8BHrmamsMoW-74" target="902zgvkrH8BHrmamsMoW-77">
          <mxGeometry relative="1" as="geometry" />
        </mxCell>
        <mxCell id="902zgvkrH8BHrmamsMoW-105" value="" style="edgeStyle=orthogonalEdgeStyle;rounded=0;orthogonalLoop=1;jettySize=auto;html=1;" edge="1" parent="1" source="902zgvkrH8BHrmamsMoW-85" target="902zgvkrH8BHrmamsMoW-102">
          <mxGeometry relative="1" as="geometry">
            <mxPoint x="424" y="1740" as="targetPoint" />
            <mxPoint x="323" y="1630" as="sourcePoint" />
          </mxGeometry>
        </mxCell>
        <mxCell id="902zgvkrH8BHrmamsMoW-108" style="edgeStyle=orthogonalEdgeStyle;rounded=0;orthogonalLoop=1;jettySize=auto;html=1;" edge="1" parent="1" source="902zgvkrH8BHrmamsMoW-102">
          <mxGeometry relative="1" as="geometry">
            <mxPoint x="308.47" y="1730" as="targetPoint" />
          </mxGeometry>
        </mxCell>
        <mxCell id="902zgvkrH8BHrmamsMoW-113" style="edgeStyle=orthogonalEdgeStyle;rounded=0;orthogonalLoop=1;jettySize=auto;html=1;entryX=0.5;entryY=0;entryDx=0;entryDy=0;" edge="1" parent="1" source="902zgvkrH8BHrmamsMoW-102" target="902zgvkrH8BHrmamsMoW-111">
          <mxGeometry relative="1" as="geometry" />
        </mxCell>
        <mxCell id="902zgvkrH8BHrmamsMoW-102" value="Comando" style="strokeWidth=2;html=1;shape=mxgraph.flowchart.decision;whiteSpace=wrap;" vertex="1" parent="1">
          <mxGeometry x="374" y="1680" width="100" height="100" as="geometry" />
        </mxCell>
        <mxCell id="902zgvkrH8BHrmamsMoW-109" value="No" style="text;html=1;align=center;verticalAlign=middle;resizable=0;points=[];autosize=1;strokeColor=none;fillColor=none;" vertex="1" parent="1">
          <mxGeometry x="325.3" y="1703" width="40" height="30" as="geometry" />
        </mxCell>
        <mxCell id="902zgvkrH8BHrmamsMoW-110" value="Fin" style="strokeWidth=2;html=1;shape=mxgraph.flowchart.terminator;whiteSpace=wrap;" vertex="1" parent="1">
          <mxGeometry x="240.14" y="1710" width="66.67" height="40" as="geometry" />
        </mxCell>
        <mxCell id="902zgvkrH8BHrmamsMoW-111" value="Procesa mensajes y realiza acciones" style="verticalLabelPosition=bottom;verticalAlign=top;html=1;shape=process;whiteSpace=wrap;rounded=1;size=0.14;arcSize=6;" vertex="1" parent="1">
          <mxGeometry x="503.47" y="1790" width="100" height="60" as="geometry" />
        </mxCell>
        <mxCell id="902zgvkrH8BHrmamsMoW-114" style="edgeStyle=orthogonalEdgeStyle;rounded=0;orthogonalLoop=1;jettySize=auto;html=1;exitX=0;exitY=0.5;exitDx=0;exitDy=0;entryX=0.5;entryY=1;entryDx=0;entryDy=0;entryPerimeter=0;" edge="1" parent="1" source="902zgvkrH8BHrmamsMoW-111" target="902zgvkrH8BHrmamsMoW-110">
          <mxGeometry relative="1" as="geometry" />
        </mxCell>
        <mxCell id="902zgvkrH8BHrmamsMoW-115" value="Si" style="text;html=1;align=center;verticalAlign=middle;resizable=0;points=[];autosize=1;strokeColor=none;fillColor=none;" vertex="1" parent="1">
          <mxGeometry x="494" y="1703" width="30" height="30" as="geometry" />
        </mxCell>
        <mxCell id="902zgvkrH8BHrmamsMoW-124" style="edgeStyle=orthogonalEdgeStyle;rounded=0;orthogonalLoop=1;jettySize=auto;html=1;" edge="1" parent="1" source="902zgvkrH8BHrmamsMoW-116" target="902zgvkrH8BHrmamsMoW-119">
          <mxGeometry relative="1" as="geometry" />
        </mxCell>
        <mxCell id="902zgvkrH8BHrmamsMoW-116" value="Inicio" style="strokeWidth=2;html=1;shape=mxgraph.flowchart.start_2;whiteSpace=wrap;" vertex="1" parent="1">
          <mxGeometry x="399" y="2520" width="50" height="50" as="geometry" />
        </mxCell>
        <mxCell id="902zgvkrH8BHrmamsMoW-117" value="&lt;font style=&quot;font-size: 36px;&quot;&gt;Diagrama de flujo&lt;br&gt;Logica de hardware&lt;/font&gt;" style="text;html=1;align=center;verticalAlign=middle;resizable=0;points=[];autosize=1;strokeColor=none;fillColor=none;" vertex="1" parent="1">
          <mxGeometry x="254" y="1190" width="340" height="100" as="geometry" />
        </mxCell>
        <mxCell id="902zgvkrH8BHrmamsMoW-118" value="&lt;font style=&quot;font-size: 36px;&quot;&gt;Diagrama de flujo&lt;br&gt;Logica de BROKER MQTT&lt;/font&gt;" style="text;html=1;align=center;verticalAlign=middle;resizable=0;points=[];autosize=1;strokeColor=none;fillColor=none;" vertex="1" parent="1">
          <mxGeometry x="199" y="2355" width="450" height="100" as="geometry" />
        </mxCell>
        <mxCell id="902zgvkrH8BHrmamsMoW-125" style="edgeStyle=orthogonalEdgeStyle;rounded=0;orthogonalLoop=1;jettySize=auto;html=1;entryX=0.5;entryY=0;entryDx=0;entryDy=0;" edge="1" parent="1" source="902zgvkrH8BHrmamsMoW-119">
          <mxGeometry relative="1" as="geometry">
            <mxPoint x="424" y="2710" as="targetPoint" />
          </mxGeometry>
        </mxCell>
        <mxCell id="902zgvkrH8BHrmamsMoW-119" value="Topic Subscribe" style="html=1;strokeWidth=2;shape=manualInput;whiteSpace=wrap;rounded=1;size=26;arcSize=11;" vertex="1" parent="1">
          <mxGeometry x="373.47" y="2610" width="100" height="70" as="geometry" />
        </mxCell>
        <mxCell id="902zgvkrH8BHrmamsMoW-138" style="edgeStyle=orthogonalEdgeStyle;rounded=0;orthogonalLoop=1;jettySize=auto;html=1;" edge="1" parent="1" source="902zgvkrH8BHrmamsMoW-120" target="902zgvkrH8BHrmamsMoW-137">
          <mxGeometry relative="1" as="geometry" />
        </mxCell>
        <mxCell id="902zgvkrH8BHrmamsMoW-139" style="edgeStyle=orthogonalEdgeStyle;rounded=0;orthogonalLoop=1;jettySize=auto;html=1;" edge="1" parent="1" source="902zgvkrH8BHrmamsMoW-120" target="902zgvkrH8BHrmamsMoW-136">
          <mxGeometry relative="1" as="geometry" />
        </mxCell>
        <mxCell id="902zgvkrH8BHrmamsMoW-120" value="Topic publish" style="strokeWidth=2;html=1;shape=mxgraph.flowchart.display;whiteSpace=wrap;" vertex="1" parent="1">
          <mxGeometry x="374" y="2830" width="100" height="60" as="geometry" />
        </mxCell>
        <mxCell id="902zgvkrH8BHrmamsMoW-127" value="&lt;font style=&quot;font-size: 36px;&quot;&gt;Diagrama de flujo&lt;br&gt;BackEnd&lt;/font&gt;" style="text;html=1;align=center;verticalAlign=middle;resizable=0;points=[];autosize=1;strokeColor=none;fillColor=none;" vertex="1" parent="1">
          <mxGeometry x="269" y="3550" width="310" height="100" as="geometry" />
        </mxCell>
        <mxCell id="902zgvkrH8BHrmamsMoW-128" value="" style="rounded=1;whiteSpace=wrap;html=1;absoluteArcSize=1;arcSize=14;strokeWidth=2;" vertex="1" parent="1">
          <mxGeometry x="388.47" y="2720" width="70" height="70" as="geometry" />
        </mxCell>
        <mxCell id="902zgvkrH8BHrmamsMoW-129" style="edgeStyle=orthogonalEdgeStyle;rounded=0;orthogonalLoop=1;jettySize=auto;html=1;entryX=0.5;entryY=0;entryDx=0;entryDy=0;entryPerimeter=0;" edge="1" parent="1" source="902zgvkrH8BHrmamsMoW-128" target="902zgvkrH8BHrmamsMoW-120">
          <mxGeometry relative="1" as="geometry" />
        </mxCell>
        <mxCell id="902zgvkrH8BHrmamsMoW-132" style="edgeStyle=orthogonalEdgeStyle;rounded=0;orthogonalLoop=1;jettySize=auto;html=1;" edge="1" parent="1" source="902zgvkrH8BHrmamsMoW-131" target="902zgvkrH8BHrmamsMoW-119">
          <mxGeometry relative="1" as="geometry" />
        </mxCell>
        <mxCell id="902zgvkrH8BHrmamsMoW-131" value="BackEnd" style="text;html=1;align=center;verticalAlign=middle;resizable=0;points=[];autosize=1;strokeColor=none;fillColor=none;" vertex="1" parent="1">
          <mxGeometry x="510" y="2630" width="70" height="30" as="geometry" />
        </mxCell>
        <mxCell id="902zgvkrH8BHrmamsMoW-134" style="edgeStyle=orthogonalEdgeStyle;rounded=0;orthogonalLoop=1;jettySize=auto;html=1;entryX=0;entryY=0.5;entryDx=0;entryDy=0;" edge="1" parent="1" source="902zgvkrH8BHrmamsMoW-133" target="902zgvkrH8BHrmamsMoW-119">
          <mxGeometry relative="1" as="geometry" />
        </mxCell>
        <mxCell id="902zgvkrH8BHrmamsMoW-133" value="Hardware" style="text;html=1;align=center;verticalAlign=middle;resizable=0;points=[];autosize=1;strokeColor=none;fillColor=none;" vertex="1" parent="1">
          <mxGeometry x="254" y="2630" width="80" height="30" as="geometry" />
        </mxCell>
        <mxCell id="902zgvkrH8BHrmamsMoW-136" value="BackEnd" style="text;html=1;align=center;verticalAlign=middle;resizable=0;points=[];autosize=1;strokeColor=none;fillColor=none;" vertex="1" parent="1">
          <mxGeometry x="511" y="2845" width="70" height="30" as="geometry" />
        </mxCell>
        <mxCell id="902zgvkrH8BHrmamsMoW-137" value="Hardware" style="text;html=1;align=center;verticalAlign=middle;resizable=0;points=[];autosize=1;strokeColor=none;fillColor=none;" vertex="1" parent="1">
          <mxGeometry x="254" y="2845" width="80" height="30" as="geometry" />
        </mxCell>
        <mxCell id="902zgvkrH8BHrmamsMoW-141" style="edgeStyle=orthogonalEdgeStyle;rounded=0;orthogonalLoop=1;jettySize=auto;html=1;entryX=0.941;entryY=0.485;entryDx=0;entryDy=0;entryPerimeter=0;" edge="1" parent="1" source="902zgvkrH8BHrmamsMoW-65" target="902zgvkrH8BHrmamsMoW-1">
          <mxGeometry relative="1" as="geometry" />
        </mxCell>
      </root>
    </mxGraphModel>
  </diagram>
</mxfile>
